<svg width="28" height="26" viewBox="0 0 28 26" fill="none" xmlns="http://www.w3.org/2000/svg">
<path d="M24.6667 8.74133V0H22V2.66667H6.00001V0H3.33334V8.74267C1.74667 9.66667 0.666672 11.368 0.666672 13.3333V18.6667C0.666672 19.0203 0.807147 19.3594 1.0572 19.6095C1.30724 19.8595 1.64638 20 2.00001 20H3.33334V25.3333H6.00001V20H22V25.3333H24.6667V20H26C26.3536 20 26.6928 19.8595 26.9428 19.6095C27.1929 19.3594 27.3333 19.0203 27.3333 18.6667V13.3333C27.3333 11.368 26.252 9.66667 24.6667 8.74133ZM12.6667 8H6.00001V5.33333H12.6667V8ZM22 8H15.3333V5.33333H22V8Z" fill="white"/>
</svg>
