<svg width="32" height="32" viewBox="0 0 32 32" fill="none" xmlns="http://www.w3.org/2000/svg">
<path d="M31 18H1C0.729167 18 0.494792 17.901 0.296875 17.7031C0.0989583 17.5052 0 17.2708 0 17C0 16.7292 0.0989583 16.4948 0.296875 16.2969C0.494792 16.099 0.729167 16 1 16H26V5C26 4.16667 25.7083 3.45833 25.125 2.875C24.5417 2.29167 23.8333 2 23 2C22.1667 2 21.4583 2.29167 20.875 2.875C20.2917 3.45833 20 4.16667 20 5V6L22 8H16L18 6V5C18 3.625 18.4896 2.44792 19.4688 1.46875C20.4479 0.489583 21.625 0 23 0C24.375 0 25.5521 0.489583 26.5312 1.46875C27.5104 2.44792 28 3.625 28 5V16H31C31.2708 16 31.5052 16.099 31.7031 16.2969C31.901 16.4948 32 16.7292 32 17C32 17.2708 31.901 17.5052 31.7031 17.7031C31.5052 17.901 31.2708 18 31 18ZM30 24C30 25.2708 29.3958 26.4375 28.1875 27.5C26.9792 28.5625 25.5833 29.3021 24 29.7188V31C24 31.2708 23.901 31.5052 23.7031 31.7031C23.5052 31.901 23.2708 32 23 32C22.7292 32 22.4948 31.901 22.2969 31.7031C22.099 31.5052 22 31.2708 22 31V30H10V31C10 31.2708 9.90104 31.5052 9.70312 31.7031C9.50521 31.901 9.27083 32 9 32C8.72917 32 8.49479 31.901 8.29688 31.7031C8.09896 31.5052 8 31.2708 8 31V29.7188C6.41667 29.3021 5.02083 28.5625 3.8125 27.5C2.60417 26.4375 2 25.2708 2 24V20H30V24Z" fill="white"/>
</svg>
