<svg width="32" height="32" viewBox="0 0 32 32" fill="currentColor" xmlns="http://www.w3.org/2000/svg" id="img">
<path d="M26.6667 12.7413V4H24V6.66667H8.00001V4H5.33334V12.7427C3.74667 13.6667 2.66667 15.368 2.66667 17.3333V22.6667C2.66667 23.0203 2.80715 23.3594 3.0572 23.6095C3.30724 23.8595 3.64638 24 4.00001 24H5.33334V29.3333H8.00001V24H24V29.3333H26.6667V24H28C28.3536 24 28.6928 23.8595 28.9428 23.6095C29.1929 23.3594 29.3333 23.0203 29.3333 22.6667V17.3333C29.3333 15.368 28.252 13.6667 26.6667 12.7413ZM14.6667 12H8.00001V9.33333H14.6667V12ZM24 12H17.3333V9.33333H24V12Z" fill="currentColor"/>
</svg>
