<svg width="24" height="24" viewBox="0 0 24 24" fill="currentColor" xmlns="http://www.w3.org/2000/svg" id="img">
<path d="M2 5V19H22V5H2ZM7 17C7 16.2044 6.68393 15.4413 6.12132 14.8787C5.55871 14.3161 4.79565 14 4 14V10C4.79565 10 5.55871 9.68393 6.12132 9.12132C6.68393 8.55871 7 7.79565 7 7H17C17 7.79565 17.3161 8.55871 17.8787 9.12132C18.4413 9.68393 19.2044 10 20 10V14C19.2044 14 18.4413 14.3161 17.8787 14.8787C17.3161 15.4413 17 16.2044 17 17H7ZM12 9C13.1 9 14 10.3 14 12C14 13.7 13.1 15 12 15C10.9 15 10 13.7 10 12C10 10.3 10.9 9 12 9Z" fill="currentColor"/>
</svg>
