<svg width="15" height="15" viewBox="0 0 15 15" fill="none" xmlns="http://www.w3.org/2000/svg">
<path d="M14.5312 8.4375H0.46875C0.341797 8.4375 0.231934 8.39111 0.13916 8.29834C0.0463867 8.20557 0 8.0957 0 7.96875C0 7.8418 0.0463867 7.73193 0.13916 7.63916C0.231934 7.54639 0.341797 7.5 0.46875 7.5H12.1875V2.34375C12.1875 1.95312 12.0508 1.62109 11.7773 1.34766C11.5039 1.07422 11.1719 0.9375 10.7812 0.9375C10.3906 0.9375 10.0586 1.07422 9.78516 1.34766C9.51172 1.62109 9.375 1.95312 9.375 2.34375V2.8125L10.3125 3.75H7.5L8.4375 2.8125V2.34375C8.4375 1.69922 8.66699 1.14746 9.12598 0.688477C9.58496 0.229492 10.1367 0 10.7812 0C11.4258 0 11.9775 0.229492 12.4365 0.688477C12.8955 1.14746 13.125 1.69922 13.125 2.34375V7.5H14.5312C14.6582 7.5 14.7681 7.54639 14.8608 7.63916C14.9536 7.73193 15 7.8418 15 7.96875C15 8.0957 14.9536 8.20557 14.8608 8.29834C14.7681 8.39111 14.6582 8.4375 14.5312 8.4375ZM14.0625 11.25C14.0625 11.8457 13.7793 12.3926 13.2129 12.8906C12.6465 13.3887 11.9922 13.7354 11.25 13.9307V14.5312C11.25 14.6582 11.2036 14.7681 11.1108 14.8608C11.0181 14.9536 10.9082 15 10.7812 15C10.6543 15 10.5444 14.9536 10.4517 14.8608C10.3589 14.7681 10.3125 14.6582 10.3125 14.5312V14.0625H4.6875V14.5312C4.6875 14.6582 4.64111 14.7681 4.54834 14.8608C4.45557 14.9536 4.3457 15 4.21875 15C4.0918 15 3.98193 14.9536 3.88916 14.8608C3.79639 14.7681 3.75 14.6582 3.75 14.5312V13.9307C3.00781 13.7354 2.35352 13.3887 1.78711 12.8906C1.2207 12.3926 0.9375 11.8457 0.9375 11.25V9.375H14.0625V11.25Z" fill="#8A8A8A" fill-opacity="0.5"/>
</svg>
