<svg width="12" height="14" viewBox="0 0 12 14" fill="none" xmlns="http://www.w3.org/2000/svg">
<path fill-rule="evenodd" clip-rule="evenodd" d="M2.2875 2.03746C3.27212 1.05285 4.60754 0.499695 6 0.499695C7.39246 0.499695 8.72788 1.05285 9.7125 2.03746C10.6971 3.02208 11.2503 4.35751 11.2503 5.74996C11.2503 7.14242 10.6971 8.47785 9.7125 9.46246L6 13.175L2.2875 9.46246C1.79994 8.97495 1.41318 8.39617 1.14931 7.75917C0.885435 7.12218 0.749622 6.43945 0.749622 5.74996C0.749622 5.06048 0.885435 4.37775 1.14931 3.74075C1.41318 3.10376 1.79994 2.52498 2.2875 2.03746ZM6 7.24996C6.39783 7.24996 6.77936 7.09193 7.06066 6.81062C7.34197 6.52932 7.5 6.14779 7.5 5.74996C7.5 5.35214 7.34197 4.97061 7.06066 4.6893C6.77936 4.408 6.39783 4.24996 6 4.24996C5.60218 4.24996 5.22065 4.408 4.93934 4.6893C4.65804 4.97061 4.5 5.35214 4.5 5.74996C4.5 6.14779 4.65804 6.52932 4.93934 6.81062C5.22065 7.09193 5.60218 7.24996 6 7.24996Z" fill="#8A8A8A" fill-opacity="0.5"/>
</svg>
