<svg width="13" height="13" viewBox="0 0 13 13" fill="none" xmlns="http://www.w3.org/2000/svg">
<path d="M11.5 4.9725V0.875H10.25V2.125H2.75V0.875H1.5V4.97312C0.75625 5.40625 0.25 6.20375 0.25 7.125V9.625C0.25 9.79076 0.315848 9.94973 0.433058 10.0669C0.550268 10.1842 0.70924 10.25 0.875 10.25H1.5V12.75H2.75V10.25H10.25V12.75H11.5V10.25H12.125C12.2908 10.25 12.4497 10.1842 12.5669 10.0669C12.6842 9.94973 12.75 9.79076 12.75 9.625V7.125C12.75 6.20375 12.2431 5.40625 11.5 4.9725ZM5.875 4.625H2.75V3.375H5.875V4.625ZM10.25 4.625H7.125V3.375H10.25V4.625Z" fill="#8A8A8A" fill-opacity="0.5"/>
</svg>
