<svg width="13" height="17" viewBox="0 0 13 17" fill="none" xmlns="http://www.w3.org/2000/svg">
<path d="M12.4921 7.84926L2.20045 0.724263C2.08168 0.642082 1.94269 0.593958 1.79854 0.585103C1.65438 0.576247 1.51054 0.606997 1.38261 0.674023C1.25467 0.741049 1.14751 0.841797 1.07272 0.965358C0.997936 1.08892 0.958378 1.23058 0.958329 1.37501L0.958329 15.625C0.958233 15.7695 0.997686 15.9113 1.07241 16.035C1.14714 16.1586 1.25429 16.2595 1.38226 16.3266C1.51022 16.3937 1.65411 16.4246 1.79834 16.4157C1.94256 16.4069 2.08163 16.3588 2.20045 16.2766L12.4921 9.15156C12.597 9.07838 12.6826 8.98097 12.7417 8.8676C12.8008 8.75424 12.8317 8.62827 12.8317 8.50041C12.8317 8.37255 12.8008 8.24658 12.7417 8.13322C12.6826 8.01985 12.597 7.92244 12.4921 7.84926Z" fill="#5743D9"/>
</svg>
