<svg width="13" height="17" viewBox="0 0 13 17" fill="none" xmlns="http://www.w3.org/2000/svg">
<path d="M0.507866 9.15074L10.7995 16.2757C10.9183 16.3579 11.0573 16.406 11.2015 16.4149C11.3456 16.4238 11.4894 16.393 11.6174 16.326C11.7453 16.259 11.8525 16.1582 11.9273 16.0346C12.0021 15.9111 12.0416 15.7694 12.0417 15.625V1.37499C12.0418 1.23049 12.0023 1.08872 11.9276 0.965046C11.8528 0.841372 11.7457 0.740509 11.6177 0.673388C11.4898 0.606267 11.3459 0.575448 11.2016 0.584272C11.0574 0.593095 10.9184 0.641225 10.7995 0.723444L0.507866 7.84844C0.403016 7.92162 0.317388 8.01903 0.258261 8.1324C0.199135 8.24576 0.168259 8.37173 0.168259 8.49959C0.168259 8.62745 0.199135 8.75342 0.258261 8.86678C0.317388 8.98015 0.403016 9.07756 0.507866 9.15074Z" fill="#5743D9"/>
</svg>
